<svg width="34" height="35" viewBox="0 0 34 35" fill="none" xmlns="http://www.w3.org/2000/svg">
<path d="M8.01841 22.2518L11.0519 22.5134C11.5115 22.5488 11.9216 22.9589 11.957 23.4185L12.2186 26.452C12.4095 27.0247 13.0672 27.3005 13.6187 27.0318L14.8703 26.4025C15.1743 26.254 15.4289 25.8439 15.4289 25.5045L15.436 22.2871C15.4289 22.0538 15.5632 21.7356 15.7259 21.573L17.7411 19.5577C18.0381 19.2607 18.3987 19.3385 18.5614 19.7274L20.5342 24.6984C20.8453 25.4762 21.5807 25.6317 22.1747 25.0378L23.0869 24.1256C23.5606 23.6518 23.7515 22.7538 23.497 22.1316L21.2484 16.4747C21.1847 16.3121 21.2342 16.0646 21.3615 15.9373L23.4828 13.816C24.1475 13.1513 24.4445 11.8785 24.1546 10.9805C24.0485 10.6623 23.801 10.4148 23.4828 10.3087C22.5848 10.0188 21.3049 10.3229 20.6403 10.9876L18.5189 13.1089C18.3917 13.2362 18.1442 13.2857 17.9815 13.222L12.3318 10.9805C11.7166 10.7189 10.8186 10.9098 10.3448 11.3835L9.43262 12.2957C8.83865 12.8897 8.99422 13.6251 9.77203 13.9362L14.743 15.909C15.1319 16.0575 15.2097 16.4323 14.9127 16.7293L12.8974 18.7445C12.7348 18.9072 12.4166 19.0415 12.1903 19.0415L8.973 19.0486C8.63359 19.0486 8.23054 19.2961 8.07498 19.6072L7.44565 20.8588C7.16281 21.3962 7.43151 22.0609 8.01841 22.2518Z" stroke="#10062B" stroke-width="2" stroke-linecap="round" stroke-linejoin="round"/>
</svg>
