<svg width="50" height="50" viewBox="0 0 50 50" fill="none" xmlns="http://www.w3.org/2000/svg">
<rect width="50" height="50" rx="25" fill="#FFA44B"/>
<path d="M15.31 22.03L17.27 24.36C17.57 24.71 17.57 25.29 17.27 25.64L15.31 27.97C15.04 28.51 15.31 29.17 15.89 29.37L17.22 29.81C17.54 29.92 18.01 29.81 18.25 29.57L20.53 27.3C20.69 27.13 21.01 27 21.24 27L24.09 27C24.51 27 24.71 27.31 24.55 27.7L22.43 32.61C22.1 33.38 22.51 34.01 23.35 34.01L24.64 34.01C25.31 34.01 26.08 33.51 26.34 32.89L28.75 27.3C28.82 27.14 29.03 27 29.21 27L32.21 27C33.15 27 34.26 26.31 34.69 25.47C34.84 25.17 34.84 24.82 34.69 24.52C34.26 23.68 33.14 22.99 32.2 22.99L29.2 22.99C29.02 22.99 28.81 22.85 28.74 22.69L26.33 17.11C26.08 16.49 25.31 15.99 24.64 15.99L23.35 15.99C22.51 15.99 22.1 16.62 22.43 17.39L24.55 22.3C24.72 22.68 24.51 23 24.09 23L21.24 23C21.01 23 20.69 22.87 20.53 22.71L18.25 20.44C18.01 20.2 17.55 20.09 17.22 20.2L15.89 20.64C15.31 20.82 15.03 21.48 15.31 22.03Z" stroke="white" stroke-width="2" stroke-linecap="round" stroke-linejoin="round"/>
</svg>
