<svg width="20" height="20" viewBox="0 0 20 20" fill="none" xmlns="http://www.w3.org/2000/svg">
<path d="M2.6416 6.19995L9.99992 10.4583L17.3082 6.22492" stroke="#10062B" stroke-width="2" stroke-linecap="round" stroke-linejoin="round"/>
<path d="M10 18.0083V10.45" stroke="#10062B" stroke-width="2" stroke-linecap="round" stroke-linejoin="round"/>
<path d="M8.27501 2.06663L3.82502 4.54165C2.81668 5.09999 1.9917 6.49997 1.9917 7.64997V12.3583C1.9917 13.5083 2.81668 14.9083 3.82502 15.4666L8.27501 17.9417C9.22501 18.4667 10.7833 18.4667 11.7333 17.9417L16.1834 15.4666C17.1917 14.9083 18.0167 13.5083 18.0167 12.3583V7.64997C18.0167 6.49997 17.1917 5.09999 16.1834 4.54165L11.7333 2.06663C10.775 1.53329 9.22501 1.53329 8.27501 2.06663Z" stroke="#10062B" stroke-width="2" stroke-linecap="round" stroke-linejoin="round"/>
<path d="M14.1666 11.0333V7.98333L6.2583 3.41663" stroke="#10062B" stroke-width="2" stroke-linecap="round" stroke-linejoin="round"/>
</svg>
