<svg width="20" height="21" viewBox="0 0 20 21" fill="none" xmlns="http://www.w3.org/2000/svg">
<path d="M13.9166 16.3167H6.08326C5.73326 16.3167 5.34159 16.0417 5.22492 15.7083L1.77492 6.05834C1.28326 4.67501 1.85826 4.25001 3.04159 5.10001L6.29159 7.42501C6.83326 7.80001 7.44992 7.60834 7.68326 7.00001L9.14992 3.09167C9.61659 1.84167 10.3916 1.84167 10.8583 3.09167L12.3249 7.00001C12.5583 7.60834 13.1749 7.80001 13.7083 7.42501L16.7583 5.25001C18.0583 4.31667 18.6833 4.79168 18.1499 6.30001L14.7833 15.725C14.6583 16.0417 14.2666 16.3167 13.9166 16.3167Z" stroke="#10062B" stroke-width="2" stroke-linecap="round" stroke-linejoin="round"/>
<path d="M5.41675 18.8333H14.5834" stroke="#10062B" stroke-width="2" stroke-linecap="round" stroke-linejoin="round"/>
<path d="M7.91675 12.1667H12.0834" stroke="#10062B" stroke-width="2" stroke-linecap="round" stroke-linejoin="round"/>
</svg>
