<svg width="50" height="50" viewBox="0 0 50 50" fill="none" xmlns="http://www.w3.org/2000/svg">
<rect width="50" height="50" rx="25" fill="#FFA44B"/>
<path d="M16.0479 29.7518L19.0814 30.0134C19.5411 30.0487 19.9512 30.4589 19.9865 30.9185L20.2482 33.952C20.4391 34.5247 21.0967 34.8005 21.6482 34.5318L22.8998 33.9025C23.2039 33.754 23.4584 33.3439 23.4584 33.0045L23.4655 29.7871C23.4584 29.5538 23.5928 29.2356 23.7554 29.0729L25.7707 27.0577C26.0677 26.7607 26.4283 26.8385 26.5909 27.2274L28.5637 32.1983C28.8749 32.9762 29.6103 33.1317 30.2042 32.5378L31.1164 31.6256C31.5902 31.1518 31.7811 30.2538 31.5265 29.6316L29.2779 23.9747C29.2143 23.8121 29.2638 23.5646 29.3911 23.4373L31.5124 21.316C32.1771 20.6513 32.474 19.3785 32.1841 18.4805C32.0781 18.1623 31.8306 17.9148 31.5124 17.8087C30.6143 17.5188 29.3345 17.8229 28.6698 18.4875L26.5485 20.6089C26.4212 20.7361 26.1737 20.7856 26.0111 20.722L20.3613 18.4805C19.7461 18.2188 18.8481 18.4098 18.3743 18.8835L17.4622 19.7957C16.8682 20.3897 17.0238 21.1251 17.8016 21.4362L22.7725 23.409C23.1614 23.5575 23.2392 23.9323 22.9422 24.2293L20.927 26.2445C20.7644 26.4071 20.4462 26.5415 20.2199 26.5415L17.0025 26.5486C16.6631 26.5486 16.2601 26.7961 16.1045 27.1072L15.4752 28.3588C15.1923 28.8962 15.4611 29.5608 16.0479 29.7518Z" stroke="white" stroke-width="2" stroke-linecap="round" stroke-linejoin="round"/>
</svg>
