<svg width="21" height="21" viewBox="0 0 21 21" fill="none" xmlns="http://www.w3.org/2000/svg">
<path d="M6.6665 1.66666V4.16666" stroke="white" stroke-width="2" stroke-miterlimit="10" stroke-linecap="round" stroke-linejoin="round"/>
<path d="M13.3335 1.66666V4.16666" stroke="white" stroke-width="2" stroke-miterlimit="10" stroke-linecap="round" stroke-linejoin="round"/>
<path d="M17.5 7.08332V11.3583C16.7583 10.7667 15.8167 10.4167 14.7917 10.4167C13.7667 10.4167 12.8083 10.775 12.0583 11.3833C11.05 12.175 10.4167 13.4167 10.4167 14.7917C10.4167 15.6083 10.65 16.3917 11.05 17.0417C11.3583 17.55 11.7583 17.9917 12.2333 18.3333H6.66667C3.75 18.3333 2.5 16.6667 2.5 14.1667V7.08332C2.5 4.58332 3.75 2.91666 6.66667 2.91666H13.3333C16.25 2.91666 17.5 4.58332 17.5 7.08332Z" stroke="white" stroke-width="2" stroke-miterlimit="10" stroke-linecap="round" stroke-linejoin="round"/>
<path d="M5.8335 9.16666H10.8335" stroke="white" stroke-width="2" stroke-miterlimit="10" stroke-linecap="round" stroke-linejoin="round"/>
<path d="M5.8335 13.3333H8.01683" stroke="white" stroke-width="2" stroke-miterlimit="10" stroke-linecap="round" stroke-linejoin="round"/>
<path d="M19.1665 14.7917C19.1665 15.6083 18.9332 16.3917 18.5332 17.0417C18.2998 17.4417 18.0082 17.7917 17.6665 18.075C16.8998 18.7583 15.8998 19.1667 14.7915 19.1667C13.8332 19.1667 12.9498 18.8583 12.2332 18.3333C11.7582 17.9917 11.3582 17.55 11.0498 17.0417C10.6498 16.3917 10.4165 15.6083 10.4165 14.7917C10.4165 13.4167 11.0498 12.175 12.0582 11.3833C12.8082 10.775 13.7665 10.4167 14.7915 10.4167C15.8165 10.4167 16.7582 10.7667 17.4998 11.3583C18.5165 12.1583 19.1665 13.4 19.1665 14.7917Z" stroke="white" stroke-width="2" stroke-miterlimit="10" stroke-linecap="round" stroke-linejoin="round"/>
<path d="M14.7918 16.875C14.7918 15.725 15.7252 14.7917 16.8752 14.7917C15.7252 14.7917 14.7918 13.8583 14.7918 12.7083C14.7918 13.8583 13.8585 14.7917 12.7085 14.7917C13.8585 14.7917 14.7918 15.725 14.7918 16.875Z" stroke="white" stroke-width="2" stroke-linecap="round" stroke-linejoin="round"/>
</svg>
