<svg width="21" height="21" viewBox="0 0 21 21" fill="none" xmlns="http://www.w3.org/2000/svg">
<path d="M6.66699 1.66663V4.16663" stroke="#10062B" stroke-width="2" stroke-miterlimit="10" stroke-linecap="round" stroke-linejoin="round"/>
<path d="M13.333 1.66663V4.16663" stroke="#10062B" stroke-width="2" stroke-miterlimit="10" stroke-linecap="round" stroke-linejoin="round"/>
<path d="M17.5 7.08329V11.3583C16.7583 10.7666 15.8167 10.4166 14.7917 10.4166C13.7667 10.4166 12.8083 10.7749 12.0583 11.3833C11.05 12.1749 10.4167 13.4166 10.4167 14.7916C10.4167 15.6083 10.65 16.3916 11.05 17.0416C11.3583 17.55 11.7583 17.9916 12.2333 18.3333H6.66667C3.75 18.3333 2.5 16.6666 2.5 14.1666V7.08329C2.5 4.58329 3.75 2.91663 6.66667 2.91663H13.3333C16.25 2.91663 17.5 4.58329 17.5 7.08329Z" stroke="#10062B" stroke-width="2" stroke-miterlimit="10" stroke-linecap="round" stroke-linejoin="round"/>
<path d="M5.83301 9.16663H10.833" stroke="#10062B" stroke-width="2" stroke-miterlimit="10" stroke-linecap="round" stroke-linejoin="round"/>
<path d="M5.83301 13.3334H8.01634" stroke="#10062B" stroke-width="2" stroke-miterlimit="10" stroke-linecap="round" stroke-linejoin="round"/>
<path d="M19.167 14.7916C19.167 15.6083 18.9336 16.3916 18.5336 17.0416C18.3003 17.4416 18.0087 17.7916 17.667 18.075C16.9003 18.7583 15.9003 19.1666 14.792 19.1666C13.8337 19.1666 12.9503 18.8583 12.2337 18.3333C11.7587 17.9916 11.3587 17.55 11.0503 17.0416C10.6503 16.3916 10.417 15.6083 10.417 14.7916C10.417 13.4166 11.0503 12.1749 12.0587 11.3833C12.8087 10.7749 13.767 10.4166 14.792 10.4166C15.817 10.4166 16.7587 10.7666 17.5003 11.3583C18.517 12.1583 19.167 13.4 19.167 14.7916Z" stroke="#10062B" stroke-width="2" stroke-miterlimit="10" stroke-linecap="round" stroke-linejoin="round"/>
<path d="M14.7913 16.875C14.7913 15.725 15.7247 14.7917 16.8747 14.7917C15.7247 14.7917 14.7913 13.8584 14.7913 12.7084C14.7913 13.8584 13.858 14.7917 12.708 14.7917C13.858 14.7917 14.7913 15.725 14.7913 16.875Z" stroke="#10062B" stroke-width="2" stroke-linecap="round" stroke-linejoin="round"/>
</svg>
