<svg width="50" height="50" viewBox="0 0 50 50" fill="none" xmlns="http://www.w3.org/2000/svg">
<rect width="50" height="50" rx="25" fill="#FFA44B"/>
<path d="M22.1601 23.87C22.0601 23.86 21.9401 23.86 21.8301 23.87C19.4501 23.79 17.5601 21.84 17.5601 19.44C17.5601 16.99 19.5401 15 22.0001 15C24.4501 15 26.4401 16.99 26.4401 19.44C26.4301 21.84 24.5401 23.79 22.1601 23.87Z" stroke="white" stroke-width="2" stroke-linecap="round" stroke-linejoin="round"/>
<path d="M29.4098 17C31.3498 17 32.9098 18.57 32.9098 20.5C32.9098 22.39 31.4098 23.93 29.5398 24C29.4598 23.99 29.3698 23.99 29.2798 24" stroke="white" stroke-width="2" stroke-linecap="round" stroke-linejoin="round"/>
<path d="M17.1602 27.56C14.7402 29.18 14.7402 31.82 17.1602 33.43C19.9102 35.27 24.4202 35.27 27.1702 33.43C29.5902 31.81 29.5902 29.17 27.1702 27.56C24.4302 25.73 19.9202 25.73 17.1602 27.56Z" stroke="white" stroke-width="2" stroke-linecap="round" stroke-linejoin="round"/>
<path d="M31.3398 33C32.0598 32.85 32.7398 32.56 33.2998 32.13C34.8598 30.96 34.8598 29.03 33.2998 27.86C32.7498 27.44 32.0798 27.16 31.3698 27" stroke="white" stroke-width="2" stroke-linecap="round" stroke-linejoin="round"/>
</svg>
