<svg width="20" height="20" viewBox="0 0 20 20" fill="none" xmlns="http://www.w3.org/2000/svg">
<path d="M18.333 5.00002V7.01669C18.333 8.33335 17.4997 9.16669 16.183 9.16669H13.333V3.34169C13.333 2.41669 14.0913 1.66669 15.0163 1.66669C15.9247 1.67502 16.758 2.04169 17.358 2.64169C17.958 3.25002 18.333 4.08335 18.333 5.00002Z" stroke="#10062B" stroke-width="2" stroke-miterlimit="10" stroke-linecap="round" stroke-linejoin="round"/>
<path d="M1.66699 5.83335V17.5C1.66699 18.1917 2.45032 18.5834 3.00032 18.1667L4.42533 17.1C4.75866 16.85 5.22533 16.8834 5.52533 17.1834L6.90866 18.575C7.23366 18.9 7.76699 18.9 8.09199 18.575L9.49199 17.175C9.78366 16.8834 10.2503 16.85 10.5753 17.1L12.0003 18.1667C12.5503 18.575 13.3337 18.1834 13.3337 17.5V3.33335C13.3337 2.41669 14.0837 1.66669 15.0003 1.66669H5.83366H5.00033C2.50033 1.66669 1.66699 3.15835 1.66699 5.00002V5.83335Z" stroke="#10062B" stroke-width="2" stroke-miterlimit="10" stroke-linecap="round" stroke-linejoin="round"/>
<path d="M5.22461 11.4417L9.77461 6.89166" stroke="#10062B" stroke-width="2" stroke-linecap="round" stroke-linejoin="round"/>
<path d="M9.93748 11.25H9.94497" stroke="#10062B" stroke-width="2" stroke-linecap="round" stroke-linejoin="round"/>
<path d="M5.16209 7.08335H5.16957" stroke="#10062B" stroke-width="2" stroke-linecap="round" stroke-linejoin="round"/>
</svg>
