<svg width="55" height="53" viewBox="0 0 55 53" fill="none" xmlns="http://www.w3.org/2000/svg">
<g filter="url(#filter0_i_2003_1103)">
<path d="M0 20.625C0 16.828 3.07804 13.75 6.875 13.75H48.125C51.922 13.75 55 16.828 55 20.625V33C55 43.6315 46.3815 52.25 35.75 52.25H19.25C8.61852 52.25 0 43.6315 0 33V20.625Z" fill="#C2C9DA"/>
</g>
<g filter="url(#filter1_i_2003_1103)">
<path d="M5.5 11C5.5 4.92487 10.4249 0 16.5 0H38.5C44.5751 0 49.5 4.92487 49.5 11V27.5C49.5 36.6127 42.1127 44 33 44H22C12.8873 44 5.5 36.6127 5.5 27.5V11Z" fill="#C2C9DA"/>
</g>
<defs>
<filter id="filter0_i_2003_1103" x="0" y="13.75" width="55" height="44" filterUnits="userSpaceOnUse" color-interpolation-filters="sRGB">
<feFlood flood-opacity="0" result="BackgroundImageFix"/>
<feBlend mode="normal" in="SourceGraphic" in2="BackgroundImageFix" result="shape"/>
<feColorMatrix in="SourceAlpha" type="matrix" values="0 0 0 0 0 0 0 0 0 0 0 0 0 0 0 0 0 0 127 0" result="hardAlpha"/>
<feOffset dy="5.5"/>
<feGaussianBlur stdDeviation="3.025"/>
<feComposite in2="hardAlpha" operator="arithmetic" k2="-1" k3="1"/>
<feColorMatrix type="matrix" values="0 0 0 0 0 0 0 0 0 0 0 0 0 0 0 0 0 0 0.25 0"/>
<feBlend mode="normal" in2="shape" result="effect1_innerShadow_2003_1103"/>
</filter>
<filter id="filter1_i_2003_1103" x="5.5" y="-5.3625" width="44" height="49.3625" filterUnits="userSpaceOnUse" color-interpolation-filters="sRGB">
<feFlood flood-opacity="0" result="BackgroundImageFix"/>
<feBlend mode="normal" in="SourceGraphic" in2="BackgroundImageFix" result="shape"/>
<feColorMatrix in="SourceAlpha" type="matrix" values="0 0 0 0 0 0 0 0 0 0 0 0 0 0 0 0 0 0 127 0" result="hardAlpha"/>
<feOffset dy="-5.5"/>
<feGaussianBlur stdDeviation="2.68125"/>
<feComposite in2="hardAlpha" operator="arithmetic" k2="-1" k3="1"/>
<feColorMatrix type="matrix" values="0 0 0 0 0 0 0 0 0 0 0 0 0 0 0 0 0 0 0.15 0"/>
<feBlend mode="normal" in2="shape" result="effect1_innerShadow_2003_1103"/>
</filter>
</defs>
</svg>
