<svg width="55" height="53" viewBox="0 0 55 53" fill="none" xmlns="http://www.w3.org/2000/svg">
<path d="M0.916667 20.625C0.916667 17.3343 3.5843 14.6667 6.875 14.6667H48.125C51.4157 14.6667 54.0833 17.3343 54.0833 20.625V33C54.0833 43.1252 45.8752 51.3333 35.75 51.3333H19.25C9.12478 51.3333 0.916667 43.1252 0.916667 33V20.625Z" fill="white" stroke="#FFA44B" stroke-width="1.83333"/>
<path d="M6.41667 11C6.41667 5.43113 10.9311 0.916667 16.5 0.916667H38.5C44.0689 0.916667 48.5833 5.43113 48.5833 11V27.5C48.5833 36.1064 41.6064 43.0833 33 43.0833H22C13.3936 43.0833 6.41667 36.1064 6.41667 27.5V11Z" fill="white" stroke="#FFA44B" stroke-width="1.83333"/>
</svg>
