<svg width="55" height="53" viewBox="0 0 55 53" fill="none" xmlns="http://www.w3.org/2000/svg">
<g filter="url(#filter0_i_2003_1102)">
<path d="M0 21.375C0 17.578 3.07804 14.5 6.875 14.5H48.125C51.922 14.5 55 17.578 55 21.375V33.75C55 44.3815 46.3815 53 35.75 53H19.25C8.61852 53 0 44.3815 0 33.75V21.375Z" fill="#0068FF"/>
</g>
<g filter="url(#filter1_i_2003_1102)">
<path d="M5.5 11.75C5.5 5.67487 10.4249 0.75 16.5 0.75H38.5C44.5751 0.75 49.5 5.67487 49.5 11.75V28.25C49.5 37.3627 42.1127 44.75 33 44.75H22C12.8873 44.75 5.5 37.3627 5.5 28.25V11.75Z" fill="#0068FF"/>
</g>
<defs>
<filter id="filter0_i_2003_1102" x="0" y="14.5" width="55" height="44" filterUnits="userSpaceOnUse" color-interpolation-filters="sRGB">
<feFlood flood-opacity="0" result="BackgroundImageFix"/>
<feBlend mode="normal" in="SourceGraphic" in2="BackgroundImageFix" result="shape"/>
<feColorMatrix in="SourceAlpha" type="matrix" values="0 0 0 0 0 0 0 0 0 0 0 0 0 0 0 0 0 0 127 0" result="hardAlpha"/>
<feOffset dy="5.5"/>
<feGaussianBlur stdDeviation="3.025"/>
<feComposite in2="hardAlpha" operator="arithmetic" k2="-1" k3="1"/>
<feColorMatrix type="matrix" values="0 0 0 0 0 0 0 0 0 0 0 0 0 0 0 0 0 0 0.25 0"/>
<feBlend mode="normal" in2="shape" result="effect1_innerShadow_2003_1102"/>
</filter>
<filter id="filter1_i_2003_1102" x="5.5" y="-4.6125" width="44" height="49.3625" filterUnits="userSpaceOnUse" color-interpolation-filters="sRGB">
<feFlood flood-opacity="0" result="BackgroundImageFix"/>
<feBlend mode="normal" in="SourceGraphic" in2="BackgroundImageFix" result="shape"/>
<feColorMatrix in="SourceAlpha" type="matrix" values="0 0 0 0 0 0 0 0 0 0 0 0 0 0 0 0 0 0 127 0" result="hardAlpha"/>
<feOffset dy="-5.5"/>
<feGaussianBlur stdDeviation="2.68125"/>
<feComposite in2="hardAlpha" operator="arithmetic" k2="-1" k3="1"/>
<feColorMatrix type="matrix" values="0 0 0 0 0 0 0 0 0 0 0 0 0 0 0 0 0 0 0.15 0"/>
<feBlend mode="normal" in2="shape" result="effect1_innerShadow_2003_1102"/>
</filter>
</defs>
</svg>
