<svg width="24" height="25" viewBox="0 0 24 25" fill="none" xmlns="http://www.w3.org/2000/svg">
<path d="M10.4901 2.73006L5.50015 4.60005C4.35015 5.03005 3.41016 6.39004 3.41016 7.62004V15.05C3.41016 16.23 4.19017 17.78 5.14017 18.49L9.44016 21.7001C10.8502 22.7601 13.1701 22.7601 14.5801 21.7001L18.8802 18.49C19.8302 17.78 20.6101 16.23 20.6101 15.05V7.62004C20.6101 6.39004 19.6701 5.03005 18.5201 4.60005L13.5302 2.73006C12.6802 2.42006 11.3201 2.42006 10.4901 2.73006Z" stroke="#10062B" stroke-width="2" stroke-linecap="round" stroke-linejoin="round"/>
<path d="M12.0002 11.42C11.9602 11.42 11.9102 11.42 11.8702 11.42C10.9302 11.39 10.1802 10.61 10.1802 9.66003C10.1802 8.69003 10.9702 7.90002 11.9402 7.90002C12.9102 7.90002 13.7002 8.69003 13.7002 9.66003C13.6902 10.62 12.9402 11.39 12.0002 11.42Z" stroke="#10062B" stroke-width="2" stroke-linecap="round" stroke-linejoin="round"/>
<path d="M10.01 14.2201C9.05004 14.8601 9.05004 15.9101 10.01 16.5501C11.1 17.2801 12.89 17.2801 13.98 16.5501C14.94 15.9101 14.94 14.8601 13.98 14.2201C12.9 13.4901 11.11 13.4901 10.01 14.2201Z" stroke="#10062B" stroke-width="2" stroke-linecap="round" stroke-linejoin="round"/>
</svg>
