<svg width="50" height="50" viewBox="0 0 50 50" fill="none" xmlns="http://www.w3.org/2000/svg">
<rect width="50" height="50" rx="25" fill="#10062B"/>
<path d="M15.3102 22.03L17.2702 24.36C17.5702 24.71 17.5702 25.29 17.2702 25.64L15.3102 27.97C15.0402 28.51 15.3102 29.17 15.8902 29.37L17.2202 29.81C17.5402 29.92 18.0102 29.81 18.2502 29.57L20.5302 27.3C20.6902 27.13 21.0102 27 21.2402 27L24.0902 27C24.5102 27 24.7102 27.31 24.5502 27.7L22.4302 32.61C22.1002 33.38 22.5102 34.01 23.3502 34.01L24.6402 34.01C25.3102 34.01 26.0802 33.51 26.3402 32.89L28.7502 27.3C28.8202 27.14 29.0302 27 29.2102 27L32.2102 27C33.1502 27 34.2602 26.31 34.6902 25.47C34.8402 25.17 34.8402 24.82 34.6902 24.52C34.2602 23.68 33.1402 22.99 32.2002 22.99L29.2002 22.99C29.0202 22.99 28.8102 22.85 28.7402 22.69L26.3302 17.11C26.0802 16.49 25.3102 15.99 24.6402 15.99L23.3502 15.99C22.5102 15.99 22.1002 16.62 22.4302 17.39L24.5502 22.3C24.7202 22.68 24.5102 23 24.0902 23L21.2402 23C21.0102 23 20.6902 22.87 20.5302 22.71L18.2502 20.44C18.0102 20.2 17.5502 20.09 17.2202 20.2L15.8902 20.64C15.3102 20.82 15.0302 21.48 15.3102 22.03Z" stroke="white" stroke-width="2" stroke-linecap="round" stroke-linejoin="round"/>
</svg>
