<svg width="20" height="20" viewBox="0 0 20 20" fill="none" xmlns="http://www.w3.org/2000/svg">
<path d="M18.3332 12.5V7.49996C18.3332 3.33329 16.6665 1.66663 12.4998 1.66663H7.49984C3.33317 1.66663 1.6665 3.33329 1.6665 7.49996V12.5C1.6665 16.6666 3.33317 18.3333 7.49984 18.3333H12.4998C16.6665 18.3333 18.3332 16.6666 18.3332 12.5Z" stroke="#10062B" stroke-width="2" stroke-linecap="round" stroke-linejoin="round"/>
<path d="M2.1001 5.92505H17.9001" stroke="#10062B" stroke-width="2" stroke-linecap="round" stroke-linejoin="round"/>
<path d="M7.1001 1.7583V5.8083" stroke="#10062B" stroke-width="2" stroke-linecap="round" stroke-linejoin="round"/>
<path d="M12.8999 1.7583V5.4333" stroke="#10062B" stroke-width="2" stroke-linecap="round" stroke-linejoin="round"/>
<path d="M8.125 12.0417V11.0417C8.125 9.75839 9.03333 9.23339 10.1417 9.87506L11.0083 10.3751L11.875 10.8751C12.9833 11.5167 12.9833 12.5667 11.875 13.2084L11.0083 13.7084L10.1417 14.2084C9.03333 14.8501 8.125 14.3251 8.125 13.0417V12.0417V12.0417Z" stroke="#10062B" stroke-width="2" stroke-miterlimit="10" stroke-linecap="round" stroke-linejoin="round"/>
</svg>
