<svg width="40" height="41" viewBox="0 0 40 41" fill="none" xmlns="http://www.w3.org/2000/svg">
<path fill-rule="evenodd" clip-rule="evenodd" d="M10.5465 16.3242H13.5487L15.504 23.1139C15.5809 23.3295 15.7658 23.2683 15.7965 23.1139L17.0435 16.3242H18.3677L16.8125 25.0849H13.749L11.8399 18.3567C11.7782 18.1719 11.5936 18.1257 11.532 18.3719L10.3312 25.0849H8.94554L10.5465 16.3242ZM5.09639 16.3242H8.02171L8.60664 25.0849H6.42033L6.37413 24.0994C6.37413 23.8839 6.20479 23.73 5.98926 23.73H2.61738L3.3564 22.4828H5.66561C5.92735 22.4828 6.23529 22.514 6.22004 22.1596L5.97355 18.2335C5.97355 17.972 5.74277 17.8487 5.60393 18.0952L1.49305 25.0852H0L5.09639 16.3242ZM21.7395 16.3242H24.6806L25.3732 25.0849H23.1718L23.1256 24.0994C23.1256 23.8839 22.9713 23.73 22.7558 23.73H19.6613L20.3846 22.4828H22.4326C22.6943 22.4828 23.0025 22.514 22.9713 22.1596L22.6174 18.2335C22.6174 17.972 22.3861 17.8487 22.2475 18.0952L18.6449 25.0852H17.1514L21.7395 16.3242Z" fill="#2E4C8C"/>
<path fill-rule="evenodd" clip-rule="evenodd" d="M34.2107 25.0849L39.9999 15H31.7934L26.0044 25.0849H34.2107Z" fill="#60B0CC"/>
<path fill-rule="evenodd" clip-rule="evenodd" d="M32.5941 25.0849L38.383 15H31.7934L26.0044 25.0849H32.5941Z" fill="#2E4C8C"/>
</svg>
