<svg width="40" height="41" viewBox="0 0 40 41" fill="none" xmlns="http://www.w3.org/2000/svg">
<g clip-path="url(#clip0_17_3499)">
<path d="M6 6H34.344V36H6V6Z" fill="#D71A21"/>
<path d="M21.4211 13.4388C21.2423 13.6692 21.1451 13.9536 21.1439 14.2452V16.7772C21.1307 16.9692 21.0575 17.1468 20.9387 17.2992C20.8727 17.3652 20.4827 17.7156 20.4491 17.7552L20.6675 17.7624C20.7407 17.6964 21.4931 17.0292 21.5663 16.9368C21.7847 16.6992 21.9095 16.3884 21.9095 16.0644V13.6308C21.9035 13.3824 21.9959 13.1424 22.1675 12.9636C22.2599 12.864 22.5503 12.6204 22.6031 12.5604L22.3715 12.5532C22.3271 12.6132 21.5003 13.3596 21.4211 13.4388ZM19.5635 22.6464L20.4827 23.4468H21.0971C21.6851 23.4468 22.2539 23.2152 22.6703 22.7988C23.0471 22.422 23.1863 21.9132 23.1863 21.4368V20.1216C23.1791 19.824 23.0543 19.5396 22.8299 19.3416C22.7903 19.302 22.5191 19.044 22.5191 19.044V20.0556C22.5191 20.0556 22.8167 20.3592 22.8695 20.4192C23.1407 20.7096 23.1407 21.2388 22.2743 22.0788C22.1219 22.224 21.6923 22.6344 21.0983 22.6344L19.5635 22.6464Z" fill="white"/>
<path d="M22.1217 17.2465C22.0221 17.3521 21.9237 17.6161 21.9237 17.8549V18.3505H22.4265C22.6245 18.3505 22.8825 18.1717 22.9353 18.0793V17.5837C23.0097 17.6929 23.1009 17.7889 23.2065 17.8681C23.2593 17.8021 23.7225 17.2465 24.1053 17.2405C24.7461 17.2333 24.6009 18.0469 24.3429 18.3049C24.2565 18.3913 23.8797 18.7345 23.7609 18.8473C23.4573 19.1377 22.9341 18.9997 22.9341 18.2521C22.9341 18.2521 22.3785 18.7813 22.2933 18.8533C22.2069 18.9265 21.9237 19.2301 21.9237 19.2301V20.5441C21.9237 21.1717 21.7185 21.3841 21.5469 21.5749C21.4809 21.6481 20.7741 22.2949 20.6745 22.3681L20.4429 22.3753C20.4429 22.3753 20.8593 21.9985 20.9385 21.9121C21.0309 21.8125 21.1437 21.6145 21.1437 21.2845C21.1437 21.1981 21.1305 19.2217 21.1305 19.2217H17.9049C16.7817 19.2217 16.5429 17.9797 16.5369 17.6425V16.3933C16.5369 16.1881 16.4049 15.8449 16.1997 15.7393H16.5165C16.5561 15.7525 16.7541 15.8317 16.7541 16.5985C16.7541 16.5985 16.7409 17.4841 16.7409 17.5369C16.7409 17.9269 17.0517 18.3697 17.4945 18.3697L21.1425 18.3625C21.1425 18.2629 21.2421 17.8933 21.4197 17.6953C21.5193 17.5825 22.3053 16.8697 22.3917 16.7965H22.6233C22.5897 16.8301 22.2069 17.1661 22.1277 17.2597L22.1217 17.2465ZM23.3181 17.9929C23.4129 18.1213 23.5161 18.2437 23.6289 18.3565C24.0249 18.6733 24.2109 18.3301 23.9457 17.9737C23.8401 17.8273 23.4369 17.8669 23.3181 17.9929Z" fill="white"/>
<path d="M19.4051 20.346C19.4051 20.5248 18.8435 20.994 18.8099 21.0204C18.7703 20.8284 18.6251 20.6232 18.2087 20.2008L18.8231 19.5864C19.2407 20.0028 19.4051 20.0952 19.4051 20.346ZM20.4767 13.2804C20.6027 13.4064 20.8667 13.7364 20.7083 13.902C20.5691 14.0412 20.3519 14.2656 20.3519 14.2656C20.3387 14.1864 20.1335 13.9884 20.1335 13.9884V14.6556C20.1263 14.9268 20.0279 14.9988 20.0279 14.9988C20.0279 14.9988 20.5235 15.4872 20.5235 16.122V16.77C20.5295 16.8924 20.4839 17.0124 20.3975 17.1C20.3507 17.1528 19.8947 17.616 19.8227 17.6748C19.7171 17.7672 19.5851 17.82 19.4459 17.814H17.7335C17.4623 17.814 17.1851 17.6028 17.1851 17.3916C17.1851 17.3388 17.1923 16.7568 17.1923 16.7568C17.2787 16.8564 17.3711 16.9752 17.5823 16.9752C17.7539 16.9752 17.9255 16.8432 17.9723 16.7904C18.0191 16.7376 19.2683 15.4416 19.2683 15.4416C19.2683 15.4416 18.6863 14.8992 18.3035 14.6424C18.1187 14.5164 17.8667 14.676 17.8271 14.8404C17.7083 15.3564 17.8271 16.1364 17.8271 16.1364L17.3579 15.6672C17.1659 15.4752 17.1731 15.0456 17.4035 14.8212C17.4371 14.7816 17.7863 14.3976 18.2231 14.3976H18.9035C19.3595 14.3976 19.8623 14.8536 19.8623 14.8536C19.9019 14.8068 19.9283 14.754 19.9355 14.6952C19.9355 14.4576 19.9283 13.83 19.9283 13.83C19.5851 13.4868 19.5383 13.1292 19.7039 12.9636C20.0147 12.6528 20.1275 12.5472 20.1275 12.5472C20.1275 12.5472 20.1131 12.9228 20.4767 13.2804ZM18.3275 16.7172C18.1559 16.896 18.1295 16.9356 17.9711 17.034H19.9007C20.4227 17.034 20.3171 16.71 20.2247 16.5444C20.0327 16.2072 19.4255 15.5856 19.4255 15.5856C19.4255 15.5856 18.3611 16.6848 18.3275 16.7172Z" fill="white"/>
<path d="M16.1269 18.4752H15.8101C15.8101 18.4752 16.1473 18.66 16.1473 19.1424V20.682C16.1473 21.6804 16.9729 22.6056 17.9785 22.6056H18.8185C19.3213 22.6056 19.4989 22.4868 19.8037 22.2156C19.9165 22.116 20.0617 21.9516 20.1145 21.8916C20.2861 21.6936 20.4781 21.5352 20.4781 21.0192V20.5164C20.4781 20.0796 20.2273 19.902 20.1013 19.776C20.0221 19.6968 19.8109 19.4916 19.8109 19.4916V20.5224C19.8109 20.5224 20.0221 20.7468 20.1145 20.82C20.5501 21.1632 20.2069 21.7584 19.7977 21.7584H17.9509C17.2765 21.7716 16.3585 21.1704 16.3585 20.1516V19.3188C16.3645 18.4752 16.1269 18.4752 16.1269 18.4752Z" fill="white"/>
<path d="M18.1499 20.3532C18.1499 20.532 17.5883 21.0012 17.5547 21.0276C17.5151 20.8356 17.3699 20.6304 16.9535 20.208L17.5679 19.5936C17.9783 20.0028 18.1499 20.0952 18.1499 20.3532ZM11.7047 27.1932H10.7135C10.4027 27.1932 10.4291 26.9352 10.3967 26.7168V25.302C10.3967 25.302 10.6151 25.2948 10.8599 25.2948C11.1311 25.2948 11.4743 25.2552 11.8055 25.44C11.6339 25.0764 11.2619 24.8508 10.8599 24.8652H10.4039V24.4092C10.4039 24.4092 10.4039 24.012 10.3043 23.9004H10.9583C11.5199 23.9004 11.9567 23.8932 12.4127 24.1908C12.4127 24.1908 12.3263 23.4444 11.2367 23.4444H9.10791C9.10791 23.4444 9.47751 23.7612 9.46431 24.4032L9.47751 26.9808C9.47751 27.6288 9.73551 27.648 9.73551 27.648H11.8307C12.3071 27.648 12.4715 27.3108 12.4715 27.126L12.4787 26.8812C12.4787 26.8824 12.3263 27.1932 11.7047 27.1932ZM17.2835 26.976V25.1712C17.2835 24.4704 16.7147 24.2856 16.2851 24.2856C15.7235 24.2856 15.5519 24.7548 15.4787 24.9204C15.3527 24.4848 14.9099 24.2856 14.5535 24.2856C13.8731 24.2856 13.7003 24.9336 13.7003 24.9336C13.7003 24.9336 13.6871 24.306 13.1387 24.306H12.6035C12.6035 24.306 12.9143 24.432 12.9143 24.9732V26.976C12.9143 27.6372 13.1783 27.6504 13.1783 27.6504H14.0639C13.8527 27.492 13.7267 27.24 13.7267 26.97V25.1916C13.7399 25.1124 13.8719 24.8484 14.2487 24.8484C14.4671 24.8484 14.7047 25.0728 14.6987 25.3248V26.976C14.6987 27.6432 14.9627 27.6504 14.9627 27.6504H15.8483C15.6371 27.4848 15.5111 27.24 15.5111 26.97V25.1916C15.5975 24.9312 15.8783 24.7896 16.1387 24.8748C16.3367 24.9408 16.4759 25.1196 16.4819 25.3308V26.976C16.4891 27.6504 16.7459 27.6432 16.7459 27.6432H17.6315C17.4191 27.4872 17.2895 27.24 17.2835 26.976ZM18.8303 26.976C18.8303 27.2412 18.9551 27.4908 19.1675 27.6504H18.2819C18.2819 27.6504 18.0107 27.6576 18.0107 26.9832V24.9672C18.0107 24.438 17.7071 24.3 17.7071 24.3H18.2423C18.4343 24.3 18.8243 24.3 18.8243 25.0464V26.9628L18.8303 26.976ZM21.5531 24.5568C21.5531 24.5568 21.4667 24.3192 21.1031 24.3192C20.5475 24.3192 20.4155 24.9804 20.4155 24.9804C20.3687 24.4584 20.2307 24.306 19.8407 24.306H19.3055C19.3055 24.306 19.6163 24.432 19.6163 24.9732V26.976C19.6163 27.6372 19.8803 27.6504 19.8803 27.6504H20.7659C20.5535 27.4908 20.4287 27.2412 20.4287 26.976V25.3308C20.4491 25.1916 20.5283 25.0668 20.6471 24.9936C20.9447 24.7956 21.3347 24.8544 21.5663 25.1256L21.5531 24.5568ZM25.6715 24.6756C25.8563 24.6756 26.0351 24.7212 26.1935 24.8076V24.3048H25.4531V23.538C25.2947 23.7888 25.0895 24.0144 24.8579 24.2052C24.6071 24.4104 24.0779 24.6684 24.0779 24.6684L24.6395 24.6756V27.0024C24.6395 27.6504 24.9107 27.6504 24.9107 27.6504H25.7903C25.5791 27.498 25.4531 27.2544 25.4471 26.9964V24.6768L25.6715 24.6756ZM28.3547 25.6872C27.8591 26.2032 27.4691 26.1228 27.1583 26.5068C27.1583 26.5068 27.2111 27.0228 27.6011 27.2004C27.7331 27.2604 28.2815 27.4584 28.6319 26.85V27.3924C28.6319 27.3924 28.4075 27.6564 27.6863 27.6564C26.8199 27.6564 26.2259 26.976 26.2259 26.0508C26.2259 25.1388 26.7083 24.2988 27.6275 24.2928C28.5203 24.2784 29.0087 25.0056 28.3547 25.6872ZM27.8123 25.4748C27.9575 25.2036 28.0763 24.516 27.5747 24.5556C26.9927 24.6024 27.1055 26.142 27.1055 26.142C27.2975 25.9308 27.5879 25.8852 27.8123 25.4748ZM18.4211 24.0348C18.6455 24.0276 18.8171 23.8428 18.8171 23.6244C18.8099 23.4 18.6251 23.2272 18.4067 23.2272C18.1883 23.2344 18.0107 23.412 18.0107 23.6304C18.0107 23.856 18.1955 24.0336 18.4211 24.0348ZM22.4723 27.2664C22.2743 27.2664 22.1291 27.0552 22.1291 26.8428C22.1291 26.01 22.8095 25.8912 22.9955 25.6728V27.0804C22.9091 27.1476 22.8287 27.2664 22.4723 27.2664ZM22.9943 25.35C22.7891 25.7076 21.1895 25.7868 21.4343 27.0228C21.5339 27.5124 21.8579 27.6576 22.2671 27.6576C22.6643 27.6576 22.9079 27.4524 23.0075 27.2544C23.0675 27.624 23.2583 27.6504 23.2583 27.6504H24.1439C23.9327 27.492 23.8007 27.2472 23.8007 26.9832V25.0992C23.8007 24.6492 23.3051 24.3 22.7759 24.3C22.4819 24.2928 22.1927 24.3792 21.9503 24.5448V25.1268C21.9503 25.1268 22.1351 24.6636 22.5911 24.6636C23.0411 24.6636 23.0735 24.888 23.0735 25.0008C23.0807 25.1184 23.0603 25.2444 22.9943 25.35ZM30.3119 26.7372C30.3191 26.9748 30.1067 27.2856 29.6579 27.2856C29.1947 27.2856 29.0099 26.8164 29.0099 26.8164V27.4116C29.2607 27.57 29.5523 27.6492 29.8499 27.6492C30.4511 27.6492 31.0655 27.1932 31.0523 26.5524C31.0463 26.3424 30.9743 26.1384 30.8471 25.9704C30.6419 25.6992 30.2723 25.5072 29.9807 25.3296C29.8151 25.23 29.7299 25.0452 29.7299 24.9864C29.7227 24.8736 29.7827 24.6492 30.2255 24.6492C30.6623 24.6492 30.8531 25.1124 30.8531 25.1124V24.5508C30.6083 24.3792 30.3107 24.2868 30.0071 24.2868C29.4779 24.2868 28.9955 24.6372 29.0087 25.086C29.0159 25.4832 29.1803 25.734 29.5043 25.9788C29.6495 26.0832 29.8019 26.178 29.9603 26.2632C30.2123 26.4 30.3047 26.5728 30.3119 26.7372Z" fill="white"/>
</g>
<defs>
<clipPath id="clip0_17_3499">
<rect width="28.344" height="30" fill="white" transform="translate(6 6)"/>
</clipPath>
</defs>
</svg>
