<svg width="139" height="40" viewBox="0 0 139 40" fill="none" xmlns="http://www.w3.org/2000/svg">
<path d="M25.0925 1.05386L21.1595 0L17.8451 12.3696L14.8528 1.20224L10.9197 2.2561L14.1527 14.3216L6.10008 6.26898L3.22089 9.14817L12.0536 17.981L1.05386 15.0336L0 18.9666L12.0186 22.187C11.881 21.5935 11.8082 20.9751 11.8082 20.3397C11.8082 15.8421 15.4542 12.1961 19.9518 12.1961C24.4494 12.1961 28.0954 15.8421 28.0954 20.3397C28.0954 20.971 28.0235 21.5856 27.8876 22.1756L38.8103 25.1023L39.8641 21.1693L27.7977 17.9361L38.7982 14.9885L37.7443 11.0555L25.6784 14.2885L33.731 6.23592L30.8518 3.35673L22.1416 12.067L25.0925 1.05386Z" fill="#0068FF"/>
<path d="M27.877 22.2214C27.5398 23.647 26.8279 24.9277 25.8511 25.9538L33.7641 33.8669L36.6433 30.9877L27.877 22.2214Z" fill="#0068FF"/>
<path d="M25.771 26.0366C24.7824 27.0463 23.5331 27.7998 22.1321 28.1881L25.0115 38.9341L28.9445 37.8802L25.771 26.0366Z" fill="#0068FF"/>
<path d="M21.9852 28.2274C21.3352 28.3945 20.6539 28.4833 19.9518 28.4833C19.1996 28.4833 18.4712 28.3813 17.7797 28.1904L14.8977 38.9462L18.8307 40L21.9852 28.2274Z" fill="#0068FF"/>
<path d="M17.6406 28.1506C16.261 27.743 15.0339 26.9799 14.0655 25.9673L6.13306 33.8998L9.01225 36.779L17.6406 28.1506Z" fill="#0068FF"/>
<path d="M13.9994 25.8973C13.0476 24.8783 12.3543 23.6147 12.0243 22.2111L1.06592 25.1474L2.11977 29.0804L13.9994 25.8973Z" fill="#0068FF"/>
<path d="M62.996 17.094C62.7467 16.6833 62.402 16.368 61.962 16.148C61.5367 15.928 61.0307 15.818 60.444 15.818C59.3587 15.818 58.5007 16.17 57.87 16.874C57.254 17.578 56.946 18.524 56.946 19.712C56.946 21.0467 57.276 22.066 57.936 22.77C58.6107 23.4593 59.586 23.804 60.862 23.804C62.3727 23.804 63.4507 23.122 64.096 21.758H59.762V18.656H67.814V22.836C67.4767 23.6573 66.978 24.4273 66.318 25.146C65.6727 25.8647 64.8513 26.4587 63.854 26.928C62.8567 27.3827 61.72 27.61 60.444 27.61C58.8893 27.61 57.5107 27.28 56.308 26.62C55.12 25.9453 54.196 25.014 53.536 23.826C52.8907 22.6233 52.568 21.252 52.568 19.712C52.568 18.1867 52.8907 16.83 53.536 15.642C54.196 14.4393 55.12 13.508 56.308 12.848C57.496 12.1733 58.8673 11.836 60.422 11.836C62.3727 11.836 63.986 12.3053 65.262 13.244C66.538 14.1827 67.33 15.466 67.638 17.094H62.996ZM69.0424 21.318C69.0424 20.042 69.2697 18.9273 69.7244 17.974C70.1937 17.0207 70.8244 16.2873 71.6164 15.774C72.4231 15.2607 73.3177 15.004 74.3004 15.004C75.1511 15.004 75.8844 15.1727 76.5004 15.51C77.1164 15.8473 77.5931 16.302 77.9304 16.874V15.158H82.2424V27.5H77.9304V25.784C77.5931 26.356 77.1091 26.8107 76.4784 27.148C75.8624 27.4853 75.1364 27.654 74.3004 27.654C73.3177 27.654 72.4231 27.3973 71.6164 26.884C70.8244 26.3707 70.1937 25.6373 69.7244 24.684C69.2697 23.716 69.0424 22.594 69.0424 21.318ZM77.9304 21.318C77.9304 20.526 77.7104 19.9027 77.2704 19.448C76.8451 18.9933 76.3171 18.766 75.6864 18.766C75.0411 18.766 74.5057 18.9933 74.0804 19.448C73.6551 19.888 73.4424 20.5113 73.4424 21.318C73.4424 22.11 73.6551 22.7407 74.0804 23.21C74.5057 23.6647 75.0411 23.892 75.6864 23.892C76.3171 23.892 76.8451 23.6647 77.2704 23.21C77.7104 22.7553 77.9304 22.1247 77.9304 21.318ZM89.0115 17.336C89.4955 16.632 90.0822 16.0747 90.7715 15.664C91.4609 15.2533 92.2015 15.048 92.9935 15.048V19.646H91.7835C90.8449 19.646 90.1482 19.8293 89.6935 20.196C89.2389 20.5627 89.0115 21.2007 89.0115 22.11V27.5H84.6995V15.158H89.0115V17.336ZM107.167 15.158V27.5H102.833V25.74C102.467 26.2973 101.961 26.752 101.315 27.104C100.67 27.4413 99.9294 27.61 99.0934 27.61C97.656 27.61 96.5194 27.1407 95.6834 26.202C94.862 25.2487 94.4514 23.958 94.4514 22.33V15.158H98.7414V21.78C98.7414 22.484 98.9247 23.0413 99.2914 23.452C99.6727 23.848 100.171 24.046 100.787 24.046C101.418 24.046 101.917 23.848 102.283 23.452C102.65 23.0413 102.833 22.484 102.833 21.78V15.158H107.167ZM108.917 21.318C108.917 20.042 109.145 18.9273 109.599 17.974C110.069 17.0207 110.707 16.2873 111.513 15.774C112.32 15.2607 113.215 15.004 114.197 15.004C114.989 15.004 115.693 15.1727 116.309 15.51C116.94 15.8327 117.431 16.28 117.783 16.852V11.22H122.117V27.5H117.783V25.784C117.446 26.356 116.969 26.8107 116.353 27.148C115.737 27.4853 115.011 27.654 114.175 27.654C113.193 27.654 112.298 27.3973 111.491 26.884C110.699 26.3707 110.069 25.6373 109.599 24.684C109.145 23.716 108.917 22.594 108.917 21.318ZM117.805 21.318C117.805 20.526 117.585 19.9027 117.145 19.448C116.72 18.9933 116.192 18.766 115.561 18.766C114.916 18.766 114.381 18.9933 113.955 19.448C113.53 19.888 113.317 20.5113 113.317 21.318C113.317 22.11 113.53 22.7407 113.955 23.21C114.381 23.6647 114.916 23.892 115.561 23.892C116.192 23.892 116.72 23.6647 117.145 23.21C117.585 22.7553 117.805 22.1247 117.805 21.318ZM123.871 21.318C123.871 20.042 124.098 18.9273 124.553 17.974C125.022 17.0207 125.653 16.2873 126.445 15.774C127.251 15.2607 128.146 15.004 129.129 15.004C129.979 15.004 130.713 15.1727 131.329 15.51C131.945 15.8473 132.421 16.302 132.759 16.874V15.158H137.071V27.5H132.759V25.784C132.421 26.356 131.937 26.8107 131.307 27.148C130.691 27.4853 129.965 27.654 129.129 27.654C128.146 27.654 127.251 27.3973 126.445 26.884C125.653 26.3707 125.022 25.6373 124.553 24.684C124.098 23.716 123.871 22.594 123.871 21.318ZM132.759 21.318C132.759 20.526 132.539 19.9027 132.099 19.448C131.673 18.9933 131.145 18.766 130.515 18.766C129.869 18.766 129.334 18.9933 128.909 19.448C128.483 19.888 128.271 20.5113 128.271 21.318C128.271 22.11 128.483 22.7407 128.909 23.21C129.334 23.6647 129.869 23.892 130.515 23.892C131.145 23.892 131.673 23.6647 132.099 23.21C132.539 22.7553 132.759 22.1247 132.759 21.318Z" fill="#10062B"/>
</svg>
