<svg width="40" height="41" viewBox="0 0 40 41" fill="none" xmlns="http://www.w3.org/2000/svg">
<g clip-path="url(#clip0_17_3516)">
<path d="M12.9071 25.18C12.9071 25.18 16.1517 20.3329 16.444 19.8542C16.8023 19.2682 16.8169 18.3366 16.4962 17.8362C16.3326 17.5747 11.4946 9.9235 11.4946 9.9235C11.0597 9.09685 11.1675 8.53324 11.4577 8.12964C11.9349 7.42547 12.7763 6.17786 12.7763 6.17786C12.7763 6.17786 18.6491 15.3913 18.8932 15.8032C19.5242 16.8545 19.3496 17.8836 18.8299 18.7659C18.3943 19.5091 14.5889 25.1806 14.5889 25.1806" fill="#F99C1C"/>
<path d="M11.8621 25.7033C11.8621 25.7033 15.6174 20.2062 15.8965 19.7505C16.2242 19.1939 16.1881 18.4104 15.8965 17.938C15.7399 17.6881 10.5262 9.48164 10.5262 9.48164C10.5262 9.48164 9.60081 10.8768 9.30918 11.308C9.01766 11.7367 8.84445 12.2718 9.34474 13.1316C9.34474 13.1316 13.0792 19.0253 13.2365 19.2751C13.5406 19.756 13.5274 20.6389 13.1878 21.1957C12.9088 21.6451 9.0581 27.2597 9.0581 27.2597H20.1702C21.2988 27.2597 21.9182 26.8206 22.4644 26.0358C22.9368 25.3685 24.7647 22.7126 25.0451 22.2958C25.3214 21.8782 25.8787 21.6005 26.1278 21.6005H26.9963L25.302 19.0225H22.5985C22.0823 19.0225 21.458 19.481 21.1304 19.9668C20.8736 20.3502 19.0242 23.1201 18.6923 23.5655C18.503 23.8167 18.3409 23.8717 18.1906 23.873C18.1079 23.873 17.8683 23.8716 17.8392 23.8716C17.9492 23.6503 21.0539 19.1323 21.6649 18.1381C22.4031 16.9133 22.5702 15.2963 21.6919 13.7446C21.3714 13.1818 14.919 2.99988 14.919 2.99988C14.919 2.99988 14.0589 4.23636 13.7013 4.76722C13.4111 5.19931 13.3221 5.76511 13.7403 6.59238C13.7403 6.59238 19.1566 15.2081 19.4147 15.6025C20.0437 16.585 19.9658 17.898 19.4147 18.7921C18.9652 19.5297 15.2224 25.1804 15.2224 25.1804H18.188C19.2623 25.1804 19.526 24.7817 19.8224 24.4518C20.119 24.1191 21.7319 21.6741 21.9141 21.4167C22.1006 21.1614 22.5709 20.4391 23.1896 20.4391H25.1372V20.4954C24.7224 20.5789 24.3133 20.8301 24.017 21.2365C23.7205 21.6378 21.7638 24.5367 21.528 24.8742C21.2309 25.3 20.8927 25.7037 20.041 25.7037" fill="#F99C1C"/>
<path d="M2.20718 31.1297H3.22159C3.45333 31.1297 3.61043 31.2634 3.61043 31.5223C3.61043 31.7808 3.45323 31.9149 3.22159 31.9149H1.04077V32.5924H3.14497C3.96215 32.5924 4.36326 32.0538 4.36326 31.5071C4.36326 30.9598 3.96174 30.4257 3.14497 30.4257C2.79376 30.4257 2.12588 30.4278 2.12588 30.4278C1.89881 30.4278 1.74681 30.2968 1.74681 30.0462C1.74681 29.794 1.89881 29.6634 2.12588 29.6634H4.31076V28.9861H2.20749C1.39987 28.9861 1.00147 29.4631 1.00147 30.0596C1.00095 30.6578 1.39935 31.1297 2.20718 31.1297ZM13.0404 32.5917H14.6503V30.2389H13.8587V31.8957H12.9313C12.2625 31.8957 11.8137 31.5098 11.8137 30.7701C11.8137 30.0278 12.262 29.6452 12.9313 29.6452H14.6498V28.9862H13.0399C11.6821 28.9862 11.0132 29.9597 11.0132 30.7932C11.0131 31.6251 11.6826 32.5917 13.0404 32.5917ZM5.17265 28.9862H5.96384V32.5918H5.17265V28.9862ZM7.7341 29.6446H9.04513C9.3666 29.6446 9.57256 29.9376 9.57256 30.2097V32.5913H10.3621V30.1101C10.3621 29.4957 9.9248 28.9856 9.22447 28.9856H8.18657L7.73462 29.5864V28.9855H6.94405V32.5913H7.73462M28.7551 29.6451H29.9975C30.2885 29.6451 30.4719 29.925 30.4719 30.1766C30.4719 30.4282 30.2879 30.6997 29.9976 30.6997H29.0251L30.6002 32.5911H31.5382L30.4212 31.2469H30.4233C30.9035 31.0917 31.2122 30.6503 31.2122 30.1532C31.2122 29.5321 30.7321 28.9853 30.0321 28.9853H27.9762V32.5909H28.7551M34.9987 32.5917V31.9319L32.8871 31.9333V31.009H34.7262V30.3533H32.8872V29.6447L34.9987 29.6451V28.9862H32.0914V32.5917H32.8872M17.2421 29.6079L17.8146 30.9106L16.6739 30.9127L17.2421 29.6079ZM16.4039 31.545L18.0845 31.546L18.5528 32.5914H19.4162L17.6508 28.9857H16.8337L15.0686 32.5913H15.9383M20.6139 29.6446H21.8412C22.1316 29.6446 22.3167 29.9476 22.3167 30.2202C22.3167 30.4912 22.1311 30.7854 21.8412 30.7854H20.6139V29.6446ZM20.6139 30.842V30.8403L21.0658 31.4401H21.8746C22.5546 31.4401 23.0342 30.8739 23.0342 30.2205C23.0342 29.5643 22.5546 28.9867 21.8746 28.9867H19.8191V32.5923H20.6139M25.4243 29.5496C26.1022 29.5496 26.6551 30.1021 26.6551 30.7848C26.6551 31.4615 26.1022 32.0129 25.4243 32.0129C24.7427 32.0129 24.1902 31.4614 24.1902 30.7848C24.1902 30.1022 24.7428 29.5496 25.4243 29.5496ZM25.4243 32.7428C26.5051 32.7428 27.3827 31.8642 27.3827 30.7853C27.3827 29.7006 26.5046 28.8224 25.4243 28.8224C24.3417 28.8224 23.4684 29.7006 23.4684 30.7853C23.4678 31.8642 24.3412 32.7428 25.4243 32.7428ZM18.4996 34.4322H19.2947V38.0355H18.4996V34.4322ZM17.9446 38.0365V37.3767L16.1008 37.3782V34.4317H15.3051V38.0365H16.1008M6.60532 35.0532L7.17714 36.3557L6.03662 36.3578L6.60532 35.0533M5.76734 36.9899L7.44642 36.9909L7.91407 38.0361H8.77783L7.01308 34.4312H6.1959L4.43084 38.036H5.30146M11.9812 35.0905H13.2244C13.5148 35.0905 13.6998 35.3702 13.6998 35.6218C13.6998 35.8734 13.5142 36.1449 13.2244 36.1449H12.2521L13.8276 38.0359H14.7653L13.6475 36.692H13.6495C14.1297 36.5369 14.4383 36.0957 14.4383 35.5987C14.4383 34.9776 13.9593 34.431 13.2597 34.431H11.2034V38.0359H11.9811M9.30983 34.4317H10.1012V38.0365H9.30983V34.4317ZM29.4216 36.5748H30.4341C30.6674 36.5748 30.824 36.7084 30.824 36.9673C30.824 37.2257 30.6674 37.3599 30.4341 37.3599H28.2544V38.037H30.3586C31.1752 38.037 31.5767 37.4988 31.5767 36.9521C31.5767 36.4049 31.1746 35.8709 30.3586 35.8709C30.008 35.8709 29.3392 35.873 29.3392 35.873C29.1128 35.873 28.9608 35.742 28.9608 35.4914C28.9608 35.2394 29.1128 35.1088 29.3392 35.1088H31.5232V34.4317H29.4215C28.6127 34.4317 28.2145 34.9087 28.2145 35.505C28.215 36.1031 28.6128 36.5748 29.4216 36.5748ZM27.4535 38.0365V37.3767L25.3419 37.3782V36.4542H27.182V35.7986H25.3417V35.09L27.4535 35.0905V34.4317H24.5473V38.0365H25.3419M21.0546 35.09H22.3664C22.6872 35.09 22.8922 35.3829 22.8922 35.6549V38.036H23.6825V35.5553C23.6825 34.9411 23.2456 34.4312 22.5448 34.4312H21.507L21.0553 35.0319V34.4312H20.2648V38.0361H21.0553" fill="#021F5E"/>
</g>
<defs>
<clipPath id="clip0_17_3516">
<rect width="34" height="35.0371" fill="white" transform="translate(1 3)"/>
</clipPath>
</defs>
</svg>
