<svg width="437" height="247" viewBox="0 0 437 247" fill="none" xmlns="http://www.w3.org/2000/svg">
<path d="M214 110.299V0.439581C151.506 -5.83812 77.2941 56.6773 48 88.7198L73.3882 177C96.0424 138.549 176.569 116.512 214 110.299Z" fill="#F3F6FD"/>
<path d="M223 110.299V0.439581C285.494 -5.83812 359.706 56.6773 389 88.7198L363.612 177C340.958 138.549 260.431 116.512 223 110.299Z" fill="#F3F6FD"/>
<path d="M372 180L395 95C459.5 141.5 431 257.5 427.5 245.5C424.7 235.9 389.333 197.833 372 180Z" fill="#F3F6FD"/>
<path d="M64.7725 180L41.7725 95C-22.7275 141.5 5.77246 257.5 9.27246 245.5C12.0725 235.9 47.4391 197.833 64.7725 180Z" fill="#F3F6FD"/>
</svg>
